<svg version="1" xmlns="http://www.w3.org/2000/svg" width="2221.333" height="2221.333" viewBox="0 0 1666.000000 1666.000000"><path d="M414.3 335.4L0 523.5v55.3l155.2 68.9 155.3 68.9.3 79.6.2 79.6-4.8 5.9c-11.7 14-18.7 27.1-22.5 42-2.2 8.8-2.2 8.8-2.2 98.9v90l4.2 8.5c2.4 4.6 5.6 10 7.2 11.9l2.9 3.5.6-2.5c.2-1.4 1.4-9.7 2.6-18.5 6.6-48.8 18.4-97.6 30.6-126.3 8.3-19.2 20.3-37.9 29.4-45.5l3.3-2.8-5-5.2c-10.1-10.4-14.5-20.8-14.5-34.7 0-22.2 14-41.3 34.7-47.5l4-1.2.6-46.4c.7-47.1 1.8-68 4.5-86.9 2.2-15.3 5.8-30.7 8.8-37.4 17.1-38.5 90.9-85.9 214.1-137.3 43.5-18.2 105.7-41.4 150.8-56.3l15.8-5.2 7.3 3.5c4 2 9.4 4.1 12 4.8l4.9 1.2-35.9 12.2c-195 66.4-313.8 128.5-345.7 180.8C407.9 703 403 738.5 403 799.5c0 18.7.3 38.3.6 43.6l.7 9.7 4.1 1.2c12.9 3.8 25.2 16 30.4 30.1 7.1 19.1.4 43.3-15.4 55.3l-4.3 3.3 4.5 4.4c14.5 14.2 28.3 42.9 38.4 79.8 15 54.6 23.6 118.1 28.1 206.6.7 14.6 1.4 22.2 2.2 22.7 2.3 1.4 34.8 11.8 53.9 17.3 66.9 18.9 134.4 29.9 218.8 35.7 25.1 1.7 115.9 1.7 139.5 0 117.6-8.5 215-31.6 307-72.7 69.9-31.1 137.2-78.4 158.9-111.5 8.3-12.5 7.7-4.5 7.3-105-.3-80.6-.5-90.1-2-95.9-3.8-13.9-10.2-26.7-19-37.9-2.3-2.8-5.2-6.6-6.4-8.3l-2.2-3 .6-78.6c.4-53.1.3-78.4-.4-78-1.6 1-514.6 226.9-516.5 227.4-1.7.5-1.8-1.2-1.8-27v-27.4l4.8-2.1c2.6-1.1 11-4.8 18.7-8.2 7.7-3.4 19.5-8.6 26.3-11.6 6.7-3 17.8-7.9 24.7-10.9 6.9-3 18.1-8 25-11 6.9-3 18-7.9 24.8-10.9 6.7-2.9 17.8-7.8 24.7-10.8 13.5-6 80.6-35.5 101-44.5 6.9-3.1 17.9-7.9 24.5-10.8 6.6-2.9 17.6-7.8 24.5-10.8 6.9-3 18.1-8 25-11 6.9-3 18.2-8 25.2-11.1 7.1-3.1 18.5-8.1 25.5-11.2 7.1-3.1 16.6-7.3 21.3-9.4 4.7-2.1 29.2-12.9 54.5-24s51.5-22.6 58.2-25.6c6.8-3 17.9-7.9 24.8-10.9 6.9-3 18.1-8 25-11 6.9-3 18.1-8 25-11 6.9-3 18.1-8 25-11 13.9-6.1 28.5-12.6 54.5-24 16.1-7.2 58.9-26 89-39.2 6.9-3 18.1-8 25-11 6.9-3 17.5-7.7 23.5-10.3 6.1-2.7 16.2-7.1 22.5-9.9 6.3-2.8 11.4-5.4 11.3-5.7-.1-.6-835-376.6-835.6-376.3-.1.1-186.6 84.8-414.4 188.3z"/></svg>